# xmcd
#
# Track frame offsets:
# 150
# 170063
# 224709
# 271154
#
# Disc length: 4583 seconds
#
# Revision: 0
# Processed by: cddbd v1.5.1PL0 Copyright (c) Steve Scherf et al.
# Submitted via: Audion 3.0.2 (http://www.panic.com/audion/)
#
DISCID=3c11e504
DTITLE=E.G. White/Eric Martin - Ministry of Healing
DYEAR=1900
DGENRE=
TTITLE0=Mind Cure
TTITLE1=In Contact With Nature
TTITLE2=General Hygiene
TTITLE3=Hygiene Among the Israelites
EXTD=
EXTT0=
EXTT1=
EXTT2=
EXTT3=
PLAYORDER=
